# xmcd CD database file
#
# Track frame offsets:
#	150
#	15145
#	31386
#	48532
#	63545
#	79275
#	95408
#	111414
#	127216
#	142237
#	157197
#	171702
#	187786
#
# Disc length: 2712 seconds
#
# Revision: 1
# Processed by: cddbd v1.5.2PL0 Copyright (c) Steve Scherf et al.
# Submitted via: CDex 1.51
#
DISCID=be0a960d
DTITLE=RightVibez Riddim Series 702 - Born To Be Loved
DYEAR=2010
DGENRE=Rhythmic Soul
TTITLE0=Kashief Lindo - No Can Do
TTITLE1=Sugar Minnott - Tainted Love
TTITLE2=Nikesha - We Can Do Better
TTITLE3=Anthony Cruz - Just Call My Name
TTITLE4=Mical Rustle - You Look So Nice
TTITLE5=Jigsy King - Sensemania
TTITLE6=Honorebel - Rally Back
TTITLE7=Screwdriver - Jah Have The Handle
TTITLE8=Sandra Brooks - What U Gonna Do
TTITLE9=Heavy Beat Crew - Read Out Wi Rights
TTITLE10=Jimmy Riley - If It Don't Work Out
TTITLE11=Kashief Lindo - And Brake The Rules
TTITLE12=Sophia George - Show Me The Money
EXTD=YEAR: 2010
EXTT0=
EXTT1=
EXTT2=
EXTT3=
EXTT4=
EXTT5=
EXTT6=
EXTT7=
EXTT8=
EXTT9=
EXTT10=
EXTT11=
EXTT12=
PLAYORDER=
